<?xml version="1.0" encoding="UTF-8"?>
<svg xmlns="http://www.w3.org/2000/svg" xmlns:xlink="http://www.w3.org/1999/xlink" viewBox="0 0 50 50" version="1.1" width="50px" height="50px">
<g id="surface1">
<path style=" " d="M 32.21875 2.0625 L 27.84375 3.78125 L 28.625 7.5625 C 28.320313 7.867188 27.996094 8.21875 27.65625 8.59375 L 23.90625 7.75 L 22.0625 12.0625 L 25.25 14.1875 C 25.214844 14.714844 25.214844 15.253906 25.25 15.78125 L 21.96875 17.78125 L 23.6875 22.15625 L 27.375 21.40625 C 27.707031 21.804688 28.070313 22.167969 28.46875 22.5 L 27.625 26.1875 L 31.96875 28.03125 L 34.09375 24.84375 C 34.625 24.878906 35.125 24.878906 35.65625 24.84375 L 37.6875 28.125 L 42.0625 26.40625 L 41.21875 22.40625 C 41.613281 22.078125 41.953125 21.703125 42.28125 21.3125 L 46.09375 22.28125 L 47.96875 17.90625 L 44.65625 15.875 C 44.6875 15.355469 44.6875 14.863281 44.65625 14.34375 L 47.9375 12.3125 L 46.21875 7.9375 L 42.40625 8.78125 C 42.078125 8.386719 41.707031 8.015625 41.3125 7.6875 L 42.15625 4 L 37.8125 2.15625 L 35.78125 5.34375 C 35.257813 5.292969 34.730469 5.265625 34.21875 5.3125 Z M 35 11 C 37.210938 11 39 12.789063 39 15 C 39 17.210938 37.210938 19 35 19 C 32.789063 19 31 17.210938 31 15 C 31 12.789063 32.789063 11 35 11 Z M 13.53125 20 L 12.90625 24 C 12.355469 24.175781 11.796875 24.425781 11.25 24.71875 L 7.90625 22.28125 L 4.40625 25.78125 L 6.71875 29.15625 C 6.441406 29.703125 6.222656 30.253906 6.03125 30.8125 L 2 31.5625 L 2 36.4375 L 6 37.15625 C 6.175781 37.710938 6.421875 38.292969 6.71875 38.84375 L 4.28125 42.09375 L 7.78125 45.59375 L 11.15625 43.28125 C 11.699219 43.558594 12.257813 43.777344 12.8125 43.96875 L 13.4375 48 L 18.34375 48 L 19.0625 44 C 19.621094 43.824219 20.199219 43.578125 20.75 43.28125 L 24.09375 45.71875 L 27.59375 42.21875 L 25.1875 38.84375 C 25.460938 38.300781 25.652344 37.742188 25.84375 37.1875 L 30 36.4375 L 30 31.53125 L 25.90625 30.90625 C 25.730469 30.355469 25.480469 29.792969 25.1875 29.25 L 27.59375 25.90625 L 24.125 22.28125 L 20.71875 24.71875 C 20.183594 24.445313 19.644531 24.222656 19.09375 24.03125 L 18.46875 20 Z M 16 30 C 18.199219 30 20 31.800781 20 34 C 20 36.199219 18.199219 38 16 38 C 13.800781 38 12 36.199219 12 34 C 12 31.800781 13.800781 30 16 30 Z "/>
</g>
</svg>
