<?xml version="1.0" standalone="no"?>
<svg version="1.0" 
  xmlns="http://www.w3.org/2000/svg" width="32px" height="32px" viewBox="0 0 32 32" preserveAspectRatio="xMidYMid meet">
  <g transform="translate(0.000000,32.000000) scale(0.100000,-0.100000)" fill="#000000" stroke="none">
    <path d="M53 282 c15 -9 41 -39 56 -67 l29 -50 -29 -57 c-17 -33 -41 -64 -56
-73 l-28 -15 40 2 c37 3 42 7 65 50 14 27 27 48 30 48 3 0 18 -23 33 -50 26
-46 31 -50 65 -50 35 1 36 1 14 13 -12 7 -39 39 -58 71 l-35 58 33 52 c18 28
35 52 39 54 3 1 15 9 25 17 18 13 16 14 -18 15 -32 0 -39 -5 -62 -45 -15 -25
-30 -45 -34 -45 -4 0 -18 20 -32 45 -23 42 -27 45 -65 45 l-40 0 28 -18z"/>
  </g>
</svg>
